<svg version="1.1" id="Layer_1" xmlns="http://www.w3.org/2000/svg" xmlns:xlink="http://www.w3.org/1999/xlink" x="0px" y="0px"
	 width="100%" viewBox="0 0 176 241" enable-background="new 0 0 176 241" xml:space="preserve">
<path fill="#FDFEFE" opacity="1.000000" stroke="none" 
	d="
M92.000000,242.000000 
	C61.351429,242.000000 31.202854,242.000000 1.027141,242.000000 
	C1.027141,161.732956 1.027141,81.465897 1.027141,1.099417 
	C59.565052,1.099417 118.130325,1.099417 176.847809,1.099417 
	C176.847809,81.333099 176.847809,161.666519 176.847809,242.000000 
	C148.799500,242.000000 120.649750,242.000000 92.000000,242.000000 
M68.923080,119.915771 
	C68.923080,119.915771 68.904381,119.779449 68.356781,119.954102 
	C68.165131,120.273796 67.973480,120.593483 67.889557,120.930618 
	C67.889557,120.930618 67.867554,120.823723 67.148582,121.342300 
	C66.987663,122.988464 66.687798,124.634521 66.686562,126.280807 
	C66.666603,152.873611 66.673721,179.466461 66.720459,206.059219 
	C66.723320,207.690170 67.107368,209.320480 67.584015,211.620361 
	C69.416168,211.279678 71.503120,211.391220 73.039513,210.525589 
	C83.787750,204.469711 94.459366,198.274597 105.074257,191.986893 
	C109.151489,189.571762 112.900558,186.596970 117.004555,184.233917 
	C123.613770,180.428391 130.393311,176.918686 137.606247,173.162750 
	C137.871506,172.953735 138.136780,172.744720 138.440933,172.320236 
	C138.440933,172.320236 138.469406,172.537338 139.081451,172.341492 
	C139.578888,171.959991 140.076324,171.578491 140.811127,171.240570 
	C140.811127,171.240570 140.959610,171.050339 141.534454,171.032410 
	C141.779053,170.760056 142.023651,170.487686 142.141113,170.181046 
	C142.141113,170.181046 142.177124,170.307709 142.797333,170.183105 
	C143.292618,169.824783 143.787918,169.466476 144.675308,169.085556 
	C144.675308,169.085556 144.986649,168.846100 145.494232,168.835587 
	C145.707596,168.583771 145.920959,168.331940 146.056091,168.047729 
	C146.056091,168.047729 146.057175,168.132401 146.689331,168.035873 
	C147.543976,167.445267 148.398605,166.854660 149.119873,166.172119 
	C149.119873,166.172119 149.193329,166.316483 149.787109,166.204742 
	C150.245575,165.849716 150.704056,165.494690 151.072372,165.077606 
	C151.072372,165.077606 151.095673,165.184555 151.636826,165.107971 
	C151.869232,164.846283 152.101639,164.584579 152.130859,164.074692 
	C152.130859,164.074692 152.366180,164.292648 153.009705,163.814758 
	C153.298965,157.493546 153.930740,151.161591 153.733063,144.855652 
	C153.634109,141.698715 151.126602,141.522079 148.496674,143.321960 
	C148.496674,143.321960 148.312408,143.437134 147.778870,143.651382 
	C147.161423,144.092896 146.543976,144.534393 145.241302,145.093063 
	C125.681206,156.397141 106.121117,167.701202 86.561028,179.005280 
	C86.108315,178.738434 85.655594,178.471588 85.202881,178.204758 
	C86.007835,174.529373 85.563828,169.208313 87.844513,167.477417 
	C95.678673,161.531784 104.382889,156.699371 112.915794,151.717224 
	C120.869171,147.073456 129.027084,142.779968 137.688721,138.174744 
	C138.164444,137.810516 138.640182,137.446304 139.043869,137.035400 
	C139.043869,137.035400 139.045532,137.121216 139.574081,137.112915 
	C139.844025,136.904999 140.113953,136.697098 140.473450,136.266998 
	C140.473450,136.266998 140.427628,136.502136 140.980209,136.331589 
	C141.401779,135.971634 141.823349,135.611679 142.122482,135.176315 
	C142.122482,135.176315 142.180893,135.307709 142.776413,135.196320 
	C143.241333,134.845200 143.706238,134.494080 144.082642,134.102295 
	C144.082642,134.102295 144.081284,134.199692 144.688065,134.133652 
	C145.161682,133.781921 145.635284,133.430191 146.038315,133.030014 
	C146.038315,133.030014 146.042419,133.115524 146.561752,133.099762 
	C146.833115,132.904266 147.104477,132.708755 147.411270,132.347122 
	C147.411270,132.347122 147.451263,132.512207 147.992996,132.334702 
	C148.420029,131.986725 148.847061,131.638763 149.137878,131.204590 
	C149.137878,131.204590 149.212509,131.347473 149.805420,131.228241 
	C150.261627,130.869568 150.717834,130.510895 151.085754,130.103363 
	C151.085754,130.103363 151.096771,130.203659 151.849472,130.006989 
	C155.618057,124.566383 154.059341,118.736298 153.031555,112.343071 
	C153.035645,111.936401 153.039749,111.529732 153.528412,110.887390 
	C153.390594,110.481918 153.252792,110.076439 153.195770,109.345276 
	C153.195770,109.345276 153.046951,109.044510 153.118240,108.390831 
	C151.382065,108.571060 149.645874,108.751289 147.975357,108.984482 
	C147.975357,108.984482 147.963104,108.901016 147.417023,108.939323 
	C147.163269,109.178886 146.909515,109.418449 146.810593,109.581970 
	C146.810593,109.581970 146.642227,109.619865 145.998932,109.761902 
	C144.904617,110.477730 143.810287,111.193558 142.045441,112.041908 
	C123.624512,122.718773 105.203583,133.395645 86.616425,144.168854 
	C84.813454,135.482254 85.261879,133.672684 90.414619,130.674667 
	C107.585938,120.683884 124.836113,110.828583 142.003738,100.831505 
	C156.678864,92.285881 153.612198,96.423706 153.920761,80.723015 
	C153.973068,78.062302 152.955658,75.380569 152.432449,72.708557 
	C149.885300,73.608467 147.113770,74.126945 144.828171,75.471458 
	C131.992020,83.022423 119.352600,90.908920 106.490738,98.414795 
	C94.442909,105.445625 82.201805,112.145302 69.466827,119.022148 
	C69.240044,119.314529 69.013260,119.606911 68.923080,119.915771 
M38.911175,55.883392 
	C38.911175,55.883392 38.891750,55.784611 38.311058,55.895657 
	C37.857079,56.252743 37.403103,56.609833 36.989407,57.005585 
	C36.989407,57.005585 36.974346,56.952003 36.301468,57.013985 
	C34.815517,57.967495 33.329563,58.921001 31.930231,59.915241 
	C31.930231,59.915241 31.917593,59.820358 31.331343,59.907604 
	C30.893009,60.274670 30.454676,60.641735 30.000986,60.998352 
	C30.000986,60.998352 30.005121,61.015171 29.466145,61.057487 
	C29.243919,61.322613 29.021694,61.587734 28.892710,61.890549 
	C28.892710,61.890549 28.884050,61.790352 28.135250,61.998695 
	C27.404491,63.588055 26.149805,65.143234 26.043463,66.773331 
	C25.751242,71.252769 25.807320,75.768684 25.976974,80.260666 
	C26.149748,84.835190 27.511477,85.386597 32.002048,82.998421 
	C32.002048,82.998421 32.005882,83.013153 32.683586,82.973106 
	C34.167435,82.016579 35.651279,81.060051 37.051956,80.060036 
	C37.051956,80.060036 37.067101,80.152664 37.634567,80.062195 
	C38.068039,79.695572 38.501511,79.328941 38.972427,79.007767 
	C38.972427,79.007767 38.973660,78.948898 39.614952,78.936523 
	C40.467297,78.313179 41.319637,77.689827 42.861618,76.979210 
	C55.047234,69.905998 67.236855,62.839676 79.416878,55.756855 
	C86.164246,51.833183 92.167618,53.172295 97.529129,60.038361 
	C96.227638,60.811401 94.968086,61.577152 93.692238,62.314709 
	C72.701225,74.449379 51.746254,86.647385 30.677956,98.646393 
	C27.177357,100.640083 25.888380,103.022354 25.917788,107.025475 
	C26.081779,129.348450 26.628901,151.699158 25.722651,173.986603 
	C25.268641,185.152115 28.353367,192.249298 38.867844,196.519821 
	C45.010693,199.014740 46.050545,198.887115 46.051903,192.131012 
	C46.056862,167.474106 46.134270,142.816635 45.963451,118.160912 
	C45.939636,114.723053 47.004128,112.706131 49.900711,111.074753 
	C59.883591,105.452354 69.787453,99.689362 79.708748,93.958000 
	C97.667503,83.583527 115.637375,73.228020 133.556259,62.785057 
	C138.001907,60.194168 138.201462,58.720165 134.488724,56.547298 
	C123.749001,50.261929 112.912086,44.142612 101.692474,37.418896 
	C98.007629,35.257034 94.333893,33.075924 90.634697,30.938902 
	C87.170517,28.937645 83.822441,28.742622 81.025284,31.871643 
	C81.025284,31.871643 80.752266,31.721123 80.075943,31.858156 
	C77.969795,33.158474 75.863647,34.458790 73.888947,35.844318 
	C73.888947,35.844318 73.815422,35.705982 73.232574,35.822849 
	C72.786980,36.186859 72.341377,36.550869 71.963737,36.978931 
	C71.963737,36.978931 71.951080,36.886406 71.351219,36.913773 
	C70.883652,37.262543 70.416084,37.611313 69.985435,38.006218 
	C69.985435,38.006218 69.968346,37.950661 69.293182,38.017372 
	C67.824127,38.980343 66.355072,39.943314 64.960556,40.994240 
	C64.960556,40.994240 64.924294,40.884800 64.258438,41.005241 
	C62.774937,41.949406 61.291435,42.893570 59.903393,43.871552 
	C59.903393,43.871552 59.887852,43.771481 59.278255,43.871784 
	C58.797974,44.228291 58.317692,44.584797 57.363918,44.992096 
	C57.363918,44.992096 57.038162,45.339458 56.448608,45.547485 
	C55.252266,46.326439 54.055920,47.105389 52.942379,47.934795 
	C52.942379,47.934795 52.929562,47.838684 52.346180,47.908325 
	C51.890442,48.265442 51.434708,48.622559 50.999390,49.000305 
	C50.999390,49.000305 50.982670,48.978241 50.288712,48.941860 
	C48.798660,49.909309 47.308605,50.876759 45.910843,51.879688 
	C45.910843,51.879688 45.894142,51.782230 45.298580,51.878376 
	C44.840492,52.234165 44.382404,52.589954 43.982582,53.002075 
	C43.982582,53.002075 43.955742,52.925629 43.318848,53.003750 
	C42.473774,53.605068 41.628704,54.206383 40.887249,54.841236 
	C40.887249,54.841236 40.861221,54.735485 40.242474,54.820942 
	C39.767635,55.162415 39.292801,55.503887 38.911175,55.883392 
z"/>
<path fill="#0358A7" opacity="1.000000" stroke="none" 
	d="
M70.045761,118.990723 
	C82.201805,112.145302 94.442909,105.445625 106.490738,98.414795 
	C119.352600,90.908920 131.992020,83.022423 144.828171,75.471458 
	C147.113770,74.126945 149.885300,73.608467 152.432465,72.708557 
	C152.955658,75.380569 153.973068,78.062302 153.920761,80.723015 
	C153.612198,96.423706 156.678864,92.285881 142.003738,100.831505 
	C124.836113,110.828583 107.585938,120.683884 90.414619,130.674667 
	C85.261879,133.672684 84.813454,135.482254 86.616425,144.168854 
	C105.203583,133.395645 123.624512,122.718773 142.795441,112.002304 
	C144.577698,111.181755 145.609955,110.400810 146.642227,109.619865 
	C146.642227,109.619865 146.810593,109.581970 147.015167,109.635429 
	C147.467514,109.426262 147.715302,109.163635 147.963104,108.901016 
	C147.963104,108.901016 147.975357,108.984482 148.370361,108.985733 
	C150.192566,109.006165 151.619766,109.025337 153.046951,109.044510 
	C153.046951,109.044510 153.195770,109.345276 153.118301,109.870575 
	C153.041840,110.638283 153.042847,110.880676 153.043854,111.123062 
	C153.039749,111.529732 153.035645,111.936401 152.756317,112.935410 
	C152.019653,119.086388 151.558212,124.645020 151.096771,130.203659 
	C151.096771,130.203659 151.085754,130.103363 150.796326,130.104187 
	C150.075439,130.519165 149.643967,130.933319 149.212509,131.347473 
	C149.212509,131.347473 149.137878,131.204590 148.859924,131.189911 
	C148.205063,131.620880 147.828156,132.066544 147.451263,132.512207 
	C147.451263,132.512207 147.411270,132.347122 147.117249,132.355804 
	C146.562943,132.614838 146.302689,132.865173 146.042419,133.115524 
	C146.042419,133.115524 146.038315,133.030014 145.751587,133.046844 
	C145.003677,133.442368 144.542480,133.821030 144.081284,134.199692 
	C144.081284,134.199692 144.082642,134.102295 143.794647,134.098755 
	C143.064743,134.499374 142.622818,134.903549 142.180893,135.307709 
	C142.180893,135.307709 142.122482,135.176315 141.839554,135.168060 
	C141.180283,135.607239 140.803955,136.054688 140.427628,136.502136 
	C140.427628,136.502136 140.473450,136.266998 140.148636,136.313385 
	C139.564392,136.613586 139.304962,136.867401 139.045532,137.121216 
	C139.045532,137.121216 139.043869,137.035400 138.746063,137.058136 
	C137.997177,137.498001 137.546066,137.915146 137.094955,138.332275 
	C129.027084,142.779968 120.869171,147.073456 112.915794,151.717224 
	C104.382889,156.699371 95.678673,161.531784 87.844513,167.477417 
	C85.563828,169.208313 86.007835,174.529373 85.202881,178.204758 
	C85.655594,178.471588 86.108315,178.738434 86.561028,179.005280 
	C106.121117,167.701202 125.681206,156.397141 145.948318,145.049011 
	C147.207703,144.482361 147.760056,143.959747 148.312408,143.437134 
	C148.312408,143.437134 148.496674,143.321960 148.972046,143.509521 
	C150.567078,144.811890 152.611160,145.895294 152.650253,147.046768 
	C152.845093,152.785568 152.512894,158.542252 152.366180,164.292648 
	C152.366180,164.292648 152.130859,164.074692 151.948578,164.201950 
	C151.542755,164.614319 151.319214,164.899429 151.095673,165.184555 
	C151.095673,165.184555 151.072372,165.077606 150.788330,165.088837 
	C150.067322,165.505539 149.630325,165.911011 149.193329,166.316498 
	C149.193329,166.316483 149.119873,166.172119 148.842468,166.164001 
	C147.729095,166.814713 146.893127,167.473557 146.057175,168.132401 
	C146.057175,168.132401 146.056091,168.047729 145.854401,168.104050 
	C145.339691,168.300552 145.117676,168.529129 144.986649,168.846100 
	C144.986649,168.846100 144.675308,169.085556 144.134842,169.080841 
	C143.121964,169.486664 142.649536,169.897186 142.177124,170.307709 
	C142.177124,170.307709 142.141113,170.181046 141.928497,170.226501 
	C141.463806,170.531418 141.211716,170.790878 140.959610,171.050339 
	C140.959610,171.050339 140.811127,171.240570 140.311218,171.193130 
	C139.364014,171.609573 138.916718,172.073456 138.469406,172.537338 
	C138.469406,172.537338 138.440933,172.320236 138.127823,172.365967 
	C137.576782,172.702469 137.338837,172.993240 137.100906,173.283997 
	C130.393311,176.918686 123.613770,180.428391 117.004555,184.233917 
	C112.900558,186.596970 109.151489,189.571762 105.074257,191.986893 
	C94.459366,198.274597 83.787750,204.469711 73.039513,210.525589 
	C71.503120,211.391220 69.416168,211.279678 67.675201,210.946106 
	C67.800110,180.455826 67.833832,150.639771 67.867554,120.823723 
	C67.867554,120.823723 67.889557,120.930618 68.110092,120.833679 
	C68.521889,120.417641 68.713135,120.098541 68.904381,119.779449 
	C68.904381,119.779449 68.923080,119.915771 69.120636,119.844254 
	C69.560707,119.512062 69.803238,119.251389 70.045761,118.990723 
z"/>
<path fill="#02AD29" opacity="1.000000" stroke="none" 
	d="
M102.113327,37.958115 
	C112.912086,44.142612 123.749001,50.261929 134.488724,56.547298 
	C138.201462,58.720165 138.001907,60.194168 133.556259,62.785057 
	C115.637375,73.228020 97.667503,83.583527 79.708748,93.958000 
	C69.787453,99.689362 59.883591,105.452354 49.900711,111.074753 
	C47.004128,112.706131 45.939636,114.723053 45.963451,118.160912 
	C46.134270,142.816635 46.056862,167.474106 46.051903,192.131012 
	C46.050545,198.887115 45.010693,199.014740 38.867844,196.519821 
	C28.353367,192.249298 25.268641,185.152115 25.722651,173.986603 
	C26.628901,151.699158 26.081779,129.348450 25.917788,107.025475 
	C25.888380,103.022354 27.177357,100.640083 30.677956,98.646393 
	C51.746254,86.647385 72.701225,74.449379 93.692238,62.314709 
	C94.968086,61.577152 96.227638,60.811401 97.529129,60.038361 
	C92.167618,53.172295 86.164246,51.833183 79.416878,55.756855 
	C67.236855,62.839676 55.047234,69.905998 42.152939,76.998222 
	C40.620724,77.661118 39.797192,78.305008 38.973660,78.948898 
	C38.973660,78.948898 38.972427,79.007767 38.650597,79.003357 
	C37.908211,79.383522 37.487656,79.768089 37.067101,80.152664 
	C37.067101,80.152664 37.051956,80.060036 36.702824,80.047058 
	C34.904423,81.027107 33.455154,82.020134 32.005882,83.013153 
	C32.005882,83.013153 32.002048,82.998421 31.623825,82.986298 
	C30.033596,82.432137 27.756914,81.860641 27.770971,81.352516 
	C27.951515,74.826523 28.459234,68.309586 28.884052,61.790352 
	C28.884050,61.790352 28.892710,61.890549 29.108099,61.837669 
	C29.550699,61.528255 29.777910,61.271713 30.005121,61.015171 
	C30.005121,61.015171 30.000986,60.998352 30.316849,60.989048 
	C31.061007,60.593285 31.489300,60.206821 31.917593,59.820358 
	C31.917593,59.820358 31.930231,59.915241 32.280041,59.935074 
	C34.078014,58.953938 35.526180,57.952972 36.974350,56.952003 
	C36.974346,56.952003 36.989407,57.005585 37.285915,56.982346 
	C38.018867,56.567612 38.455311,56.176113 38.891750,55.784611 
	C38.891750,55.784611 38.911175,55.883392 39.194572,55.887817 
	C39.939049,55.506653 40.400135,55.121067 40.861221,54.735485 
	C40.861221,54.735485 40.887249,54.841236 41.208115,54.875713 
	C42.337898,54.248669 43.146820,53.587151 43.955742,52.925629 
	C43.955742,52.925629 43.982582,53.002075 44.272705,52.975819 
	C45.006603,52.560452 45.450375,52.171341 45.894142,51.782230 
	C45.894142,51.782230 45.910843,51.879688 46.243629,51.907307 
	C48.045166,50.949364 49.513916,49.963802 50.982670,48.978241 
	C50.982670,48.978241 50.999390,49.000305 51.301102,48.988396 
	C52.045067,48.597218 52.487312,48.217949 52.929562,47.838684 
	C52.929562,47.838684 52.942379,47.934795 53.256851,47.948574 
	C54.726936,47.088055 55.882549,46.213757 57.038162,45.339458 
	C57.038162,45.339458 57.363918,44.992096 57.930054,44.970818 
	C58.960075,44.556850 59.423962,44.164165 59.887852,43.771481 
	C59.887852,43.771481 59.903393,43.871552 60.231911,43.875237 
	C62.015049,42.880882 63.469673,41.882843 64.924294,40.884800 
	C64.924294,40.884800 64.960556,40.994240 65.298622,40.978016 
	C67.080574,39.958080 68.524460,38.954372 69.968346,37.950661 
	C69.968346,37.950661 69.985435,38.006218 70.278244,37.989403 
	C71.031052,37.610527 71.491066,37.248466 71.951080,36.886406 
	C71.951080,36.886406 71.963737,36.978931 72.253265,36.957924 
	C72.967003,36.526608 73.391212,36.116295 73.815422,35.705978 
	C73.815422,35.705982 73.888947,35.844318 74.214119,35.866158 
	C76.610283,34.499043 78.681274,33.110085 80.752266,31.721123 
	C80.752266,31.721123 81.025284,31.871643 81.300003,31.872662 
	C84.874611,31.559401 87.889824,30.138958 91.289108,33.104565 
	C94.139290,35.591133 98.449539,36.404121 102.113327,37.958115 
z"/>
<path fill="#014A8B" opacity="1.000000" stroke="none" 
	d="
M67.508072,121.083008 
	C67.833832,150.639771 67.800110,180.455826 67.540222,210.611481 
	C67.107368,209.320480 66.723320,207.690170 66.720459,206.059219 
	C66.673721,179.466461 66.666603,152.873611 66.686562,126.280807 
	C66.687798,124.634521 66.987663,122.988464 67.508072,121.083008 
z"/>
<path fill="#0CA440" opacity="1.000000" stroke="none" 
	d="
M28.509651,61.894524 
	C28.459234,68.309586 27.951515,74.826523 27.770971,81.352516 
	C27.756914,81.860641 30.033596,82.432137 31.630917,82.991692 
	C27.511477,85.386597 26.149748,84.835190 25.976974,80.260666 
	C25.807320,75.768684 25.751242,71.252769 26.043463,66.773331 
	C26.149805,65.143234 27.404491,63.588055 28.509651,61.894524 
z"/>
<path fill="#10A940" opacity="1.000000" stroke="none" 
	d="
M101.902901,37.688507 
	C98.449539,36.404121 94.139290,35.591133 91.289108,33.104565 
	C87.889824,30.138958 84.874611,31.559401 81.161011,31.805618 
	C83.822441,28.742622 87.170517,28.937645 90.634697,30.938902 
	C94.333893,33.075924 98.007629,35.257034 101.902901,37.688507 
z"/>
<path fill="#206295" opacity="1.000000" stroke="none" 
	d="
M152.687943,164.053711 
	C152.512894,158.542252 152.845093,152.785568 152.650253,147.046768 
	C152.611160,145.895294 150.567078,144.811890 149.077820,143.484695 
	C151.126602,141.522079 153.634109,141.698715 153.733063,144.855652 
	C153.930740,151.161591 153.298965,157.493546 152.687943,164.053711 
z"/>
<path fill="#165B97" opacity="1.000000" stroke="none" 
	d="
M151.473114,130.105316 
	C151.558212,124.645020 152.019653,119.086388 152.788818,113.238762 
	C154.059341,118.736298 155.618057,124.566383 151.473114,130.105316 
z"/>
<path fill="#10A940" opacity="1.000000" stroke="none" 
	d="
M80.414108,31.789639 
	C78.681274,33.110085 76.610283,34.499043 74.148392,35.823555 
	C75.863647,34.458790 77.969795,33.158474 80.414108,31.789639 
z"/>
<path fill="#0CA440" opacity="1.000000" stroke="none" 
	d="
M32.344734,82.993134 
	C33.455154,82.020134 34.904423,81.027107 36.744408,80.068802 
	C35.651279,81.060051 34.167435,82.016579 32.344734,82.993134 
z"/>
<path fill="#0CA440" opacity="1.000000" stroke="none" 
	d="
M36.637909,56.982994 
	C35.526180,57.952972 34.078014,58.953938 32.236729,59.914703 
	C33.329563,58.921001 34.815517,57.967495 36.637909,56.982994 
z"/>
<path fill="#10A940" opacity="1.000000" stroke="none" 
	d="
M69.630768,37.984016 
	C68.524460,38.954372 67.080574,39.958080 65.261353,40.934036 
	C66.355072,39.943314 67.824127,38.980343 69.630768,37.984016 
z"/>
<path fill="#0BA73D" opacity="1.000000" stroke="none" 
	d="
M64.591370,40.945023 
	C63.469673,41.882843 62.015049,42.880882 60.184181,43.858330 
	C61.291435,42.893570 62.774937,41.949406 64.591370,40.945023 
z"/>
<path fill="#0BA73D" opacity="1.000000" stroke="none" 
	d="
M50.635689,48.960049 
	C49.513916,49.963802 48.045166,50.949364 46.197483,51.889565 
	C47.308605,50.876759 48.798660,49.909309 50.635689,48.960049 
z"/>
<path fill="#165B97" opacity="1.000000" stroke="none" 
	d="
M153.082596,108.717667 
	C151.619766,109.025337 150.192566,109.006165 148.337540,108.959259 
	C149.645874,108.751289 151.382065,108.571060 153.082596,108.717667 
z"/>
<path fill="#0BA73D" opacity="1.000000" stroke="none" 
	d="
M56.743385,45.443474 
	C55.882549,46.213757 54.726936,47.088055 53.215450,47.923347 
	C54.055920,47.105389 55.252266,46.326439 56.743385,45.443474 
z"/>
<path fill="#165B97" opacity="1.000000" stroke="none" 
	d="
M146.320587,109.690887 
	C145.609955,110.400810 144.577698,111.181755 143.130707,111.936043 
	C143.810287,111.193558 144.904617,110.477730 146.320587,109.690887 
z"/>
<path fill="#0BA73D" opacity="1.000000" stroke="none" 
	d="
M43.637295,52.964691 
	C43.146820,53.587151 42.337898,54.248669 41.156303,54.858944 
	C41.628704,54.206383 42.473774,53.605068 43.637295,52.964691 
z"/>
<path fill="#0CA440" opacity="1.000000" stroke="none" 
	d="
M39.294304,78.942711 
	C39.797192,78.305008 40.620724,77.661118 41.808121,77.041855 
	C41.319637,77.689827 40.467297,78.313179 39.294304,78.942711 
z"/>
<path fill="#206295" opacity="1.000000" stroke="none" 
	d="
M146.373260,168.084137 
	C146.893127,167.473557 147.729095,166.814713 148.909149,166.209961 
	C148.398605,166.854660 147.543976,167.445267 146.373260,168.084137 
z"/>
<path fill="#206295" opacity="1.000000" stroke="none" 
	d="
M148.045639,143.544250 
	C147.760056,143.959747 147.207703,144.482361 146.290924,144.990417 
	C146.543976,144.534393 147.161423,144.092896 148.045639,143.544250 
z"/>
<path fill="#165B97" opacity="1.000000" stroke="none" 
	d="
M137.391846,138.253510 
	C137.546066,137.915146 137.997177,137.498001 138.782089,137.081467 
	C138.640182,137.446304 138.164444,137.810516 137.391846,138.253510 
z"/>
<path fill="#206295" opacity="1.000000" stroke="none" 
	d="
M149.490219,166.260620 
	C149.630325,165.911011 150.067322,165.505539 150.833420,165.119873 
	C150.704056,165.494690 150.245575,165.849716 149.490219,166.260620 
z"/>
<path fill="#165B97" opacity="1.000000" stroke="none" 
	d="
M140.703918,136.416870 
	C140.803955,136.054688 141.180283,135.607239 141.900772,135.205765 
	C141.823349,135.611679 141.401779,135.971634 140.703918,136.416870 
z"/>
<path fill="#165B97" opacity="1.000000" stroke="none" 
	d="
M142.478653,135.252014 
	C142.622818,134.903549 143.064743,134.499374 143.838898,134.119080 
	C143.706238,134.494080 143.241333,134.845200 142.478653,135.252014 
z"/>
<path fill="#165B97" opacity="1.000000" stroke="none" 
	d="
M144.384674,134.166672 
	C144.542480,133.821030 145.003677,133.442368 145.786880,133.071075 
	C145.635284,133.430191 145.161682,133.781921 144.384674,134.166672 
z"/>
<path fill="#165B97" opacity="1.000000" stroke="none" 
	d="
M147.722137,132.423462 
	C147.828156,132.066544 148.205063,131.620880 148.928024,131.233002 
	C148.847061,131.638763 148.420029,131.986725 147.722137,132.423462 
z"/>
<path fill="#165B97" opacity="1.000000" stroke="none" 
	d="
M149.508972,131.287857 
	C149.643967,130.933319 150.075439,130.519165 150.840469,130.128616 
	C150.717834,130.510895 150.261627,130.869568 149.508972,131.287857 
z"/>
<path fill="#0BA73D" opacity="1.000000" stroke="none" 
	d="
M59.583054,43.821632 
	C59.423962,44.164165 58.960075,44.556850 58.166798,44.945419 
	C58.317692,44.584797 58.797974,44.228291 59.583054,43.821632 
z"/>
<path fill="#206295" opacity="1.000000" stroke="none" 
	d="
M142.487228,170.245407 
	C142.649536,169.897186 143.121964,169.486664 143.938782,169.092148 
	C143.787918,169.466476 143.292618,169.824783 142.487228,170.245407 
z"/>
<path fill="#206295" opacity="1.000000" stroke="none" 
	d="
M138.775421,172.439423 
	C138.916718,172.073456 139.364014,171.609573 140.192535,171.171341 
	C140.076324,171.578491 139.578888,171.959991 138.775421,172.439423 
z"/>
<path fill="#0CA440" opacity="1.000000" stroke="none" 
	d="
M37.350834,80.107430 
	C37.487656,79.768089 37.908211,79.383522 38.631878,78.980629 
	C38.501511,79.328941 38.068039,79.695572 37.350834,80.107430 
z"/>
<path fill="#10A940" opacity="1.000000" stroke="none" 
	d="
M73.524002,35.764412 
	C73.391212,36.116295 72.967003,36.526608 72.219284,36.925903 
	C72.341377,36.550869 72.786980,36.186859 73.524002,35.764412 
z"/>
<path fill="#10A940" opacity="1.000000" stroke="none" 
	d="
M71.651154,36.900089 
	C71.491066,37.248466 71.031052,37.610527 70.259781,37.966335 
	C70.416084,37.611313 70.883652,37.262543 71.651154,36.900089 
z"/>
<path fill="#0CA440" opacity="1.000000" stroke="none" 
	d="
M31.624468,59.863983 
	C31.489300,60.206821 31.061007,60.593285 30.324528,60.994270 
	C30.454676,60.641735 30.893009,60.274670 31.624468,59.863983 
z"/>
<path fill="#0BA73D" opacity="1.000000" stroke="none" 
	d="
M38.601402,55.840134 
	C38.455311,56.176113 38.018867,56.567612 37.265774,56.963013 
	C37.403103,56.609833 37.857079,56.252743 38.601402,55.840134 
z"/>
<path fill="#0BA73D" opacity="1.000000" stroke="none" 
	d="
M40.551849,54.778214 
	C40.400135,55.121067 39.939049,55.506653 39.147964,55.868801 
	C39.292801,55.503887 39.767635,55.162415 40.551849,54.778214 
z"/>
<path fill="#0BA73D" opacity="1.000000" stroke="none" 
	d="
M45.596359,51.830303 
	C45.450375,52.171341 45.006603,52.560452 44.243576,52.947651 
	C44.382404,52.589954 44.840492,52.234165 45.596359,51.830303 
z"/>
<path fill="#0BA73D" opacity="1.000000" stroke="none" 
	d="
M52.637871,47.873505 
	C52.487312,48.217949 52.045067,48.597218 51.290894,48.978077 
	C51.434708,48.622559 51.890442,48.265442 52.637871,47.873505 
z"/>
<path fill="#206295" opacity="1.000000" stroke="none" 
	d="
M145.240448,168.840851 
	C145.117676,168.529129 145.339691,168.300552 145.893524,168.120239 
	C145.920959,168.331940 145.707596,168.583771 145.240448,168.840851 
z"/>
<path fill="#206295" opacity="1.000000" stroke="none" 
	d="
M141.247040,171.041382 
	C141.211716,170.790878 141.463806,170.531418 141.992065,170.243637 
	C142.023651,170.487686 141.779053,170.760056 141.247040,171.041382 
z"/>
<path fill="#206295" opacity="1.000000" stroke="none" 
	d="
M137.353577,173.223373 
	C137.338837,172.993240 137.576782,172.702469 138.108383,172.473724 
	C138.136780,172.744720 137.871506,172.953735 137.353577,173.223373 
z"/>
<path fill="#206295" opacity="1.000000" stroke="none" 
	d="
M151.366241,165.146271 
	C151.319214,164.899429 151.542755,164.614319 152.050171,164.326050 
	C152.101639,164.584579 151.869232,164.846283 151.366241,165.146271 
z"/>
<path fill="#165B97" opacity="1.000000" stroke="none" 
	d="
M139.309814,137.117065 
	C139.304962,136.867401 139.564392,136.613586 140.103851,136.424469 
	C140.113953,136.697098 139.844025,136.904999 139.309814,137.117065 
z"/>
<path fill="#165B97" opacity="1.000000" stroke="none" 
	d="
M146.302094,133.107635 
	C146.302689,132.865173 146.562943,132.614838 147.099518,132.438873 
	C147.104477,132.708755 146.833115,132.904266 146.302094,133.107635 
z"/>
<path fill="#014A8B" opacity="1.000000" stroke="none" 
	d="
M68.630585,119.866776 
	C68.713135,120.098541 68.521889,120.417641 68.056229,120.824951 
	C67.973480,120.593483 68.165131,120.273796 68.630585,119.866776 
z"/>
<path fill="#014A8B" opacity="1.000000" stroke="none" 
	d="
M69.756302,119.006439 
	C69.803238,119.251389 69.560707,119.512062 69.052338,119.836014 
	C69.013260,119.606911 69.240044,119.314529 69.756302,119.006439 
z"/>
<path fill="#165B97" opacity="1.000000" stroke="none" 
	d="
M153.286133,111.005226 
	C153.042847,110.880676 153.041840,110.638283 153.077911,110.033424 
	C153.252792,110.076439 153.390594,110.481918 153.286133,111.005226 
z"/>
<path fill="#165B97" opacity="1.000000" stroke="none" 
	d="
M147.690063,108.920166 
	C147.715302,109.163635 147.467514,109.426262 146.937744,109.673447 
	C146.909515,109.418449 147.163269,109.178886 147.690063,108.920166 
z"/>
<path fill="#0CA440" opacity="1.000000" stroke="none" 
	d="
M29.735634,61.036331 
	C29.777910,61.271713 29.550699,61.528255 29.061478,61.818825 
	C29.021694,61.587734 29.243919,61.322613 29.735634,61.036331 
z"/>
</svg>